<?xml version="1.0" standalone="no"?>
<!DOCTYPE svg PUBLIC "-//W3C//DTD SVG 20010904//EN"
 "http://www.w3.org/TR/2001/REC-SVG-20010904/DTD/svg10.dtd">
<svg version="1.0" xmlns="http://www.w3.org/2000/svg"
 width="300.000000pt" height="300.000000pt" viewBox="0 0 300.000000 300.000000"
 preserveAspectRatio="xMidYMid meet">
<metadata>
Created by potrace 1.11, written by Peter Selinger 2001-2013
</metadata>
<g transform="translate(0.000000,300.000000) scale(0.100000,-0.100000)"
fill="#000000" stroke="none">
<path d="M1255 2944 c-535 -82 -980 -460 -1145 -974 -15 -48 -33 -111 -39
-141 -6 -30 -13 -67 -17 -84 -13 -64 -13 -409 1 -490 22 -133 24 -140 61 -252
103 -313 317 -583 599 -761 85 -53 255 -128 350 -155 176 -49 205 -52 455 -52
187 0 228 3 319 23 499 111 896 467 1055 944 84 251 96 487 41 773 -21 110
-109 322 -181 437 -94 149 -302 366 -461 481 -160 115 -366 203 -563 242 -112
22 -357 27 -475 9z m355 -18 c161 -16 349 -72 475 -140 54 -29 49 -28 -67 15
-150 56 -306 81 -498 82 -270 0 -443 -35 -659 -135 -254 -116 -528 -373 -641
-600 -13 -27 -25 -46 -27 -44 -8 8 34 85 103 191 142 218 334 388 564 500 81
39 224 90 280 100 19 3 55 11 80 16 25 6 81 13 125 16 44 3 81 6 82 7 4 3 124
-3 183 -8z m96 -90 c116 -23 113 -22 199 -51 480 -161 834 -565 934 -1067 14
-71 18 -129 16 -243 -2 -82 -6 -163 -9 -180 -88 -395 -266 -679 -563 -898 -80
-59 -279 -163 -368 -192 -152 -50 -257 -67 -425 -69 -179 -1 -268 9 -410 49
-205 56 -445 196 -570 332 -118 127 -238 332 -290 495 -12 37 -21 69 -20 70 1
2 -3 16 -9 32 -42 109 -52 428 -20 591 32 159 29 151 77 270 189 473 642 822
1132 872 30 3 56 6 58 8 8 7 201 -6 268 -19z m-756 -80 c0 -2 -32 -20 -72 -41
-61 -31 -140 -83 -223 -145 -11 -8 -65 -60 -121 -116 -182 -182 -319 -427
-375 -669 -12 -54 -12 -55 -28 -159 -9 -64 -8 -315 2 -361 3 -11 8 -40 12 -65
18 -113 69 -268 122 -370 19 -37 25 -54 13 -40 -58 73 -153 310 -185 465 -23
106 -24 124 -25 238 -1 164 49 387 121 542 140 300 379 544 673 686 82 40 86
42 86 35z m1211 -41 c247 -124 431 -308 554 -555 43 -87 33 -83 -15 5 -55 101
-164 241 -254 324 -28 25 -58 54 -67 63 -33 31 -174 126 -242 162 -88 46 -68
47 24 1z m638 -642 c69 -138 119 -304 136 -454 9 -69 9 -288 1 -325 -3 -16 -8
-45 -10 -65 -25 -201 -166 -510 -306 -669 -115 -130 -213 -218 -310 -275 -10
-6 -24 -16 -32 -22 -17 -15 -213 -113 -224 -113 -5 0 28 20 74 45 127 68 228
142 323 235 162 161 246 285 340 505 31 71 60 182 84 314 19 108 13 441 -9
546 -23 106 -56 218 -67 230 -5 5 -9 15 -9 22 0 8 -16 46 -35 86 -19 39 -35
74 -35 77 0 12 35 -48 79 -137z m-2523 -1324 c8 -8 14 -19 14 -22 0 -4 6 -15
14 -24 198 -246 390 -414 584 -512 81 -41 80 -48 -2 -11 -284 129 -533 370
-672 651 -47 95 -42 100 7 9 22 -41 47 -82 55 -91z m2438 79 c-64 -130 -145
-239 -264 -359 -188 -189 -401 -311 -650 -373 -82 -20 -250 -44 -293 -41 -121
9 -202 17 -208 20 -4 3 -24 7 -45 11 -59 8 -229 67 -317 109 -78 37 -108 59
-39 29 120 -53 291 -98 417 -111 109 -12 305 -6 385 11 14 3 48 10 77 15 114
22 317 104 428 174 205 129 391 322 497 514 22 40 42 73 44 73 2 0 -12 -33
-32 -72z"/>
<path d="M1885 2448 c-144 -47 -250 -159 -308 -323 -7 -19 -13 -256 -17 -682
-5 -638 -5 -652 -26 -679 -33 -44 -68 -66 -118 -71 -28 -4 -45 -10 -43 -17 3
-8 121 -11 410 -11 l407 0 10 25 c16 42 130 361 130 366 0 2 -5 4 -10 4 -6 0
-26 -33 -46 -73 -20 -41 -57 -97 -84 -125 -86 -91 -179 -122 -367 -122 l-104
0 3 678 3 677 28 69 c49 124 120 212 207 257 22 12 40 25 40 30 0 12 -77 10
-115 -3z"/>
<path d="M838 2322 c-16 -2 -28 -9 -28 -15 0 -7 -29 -93 -65 -191 -36 -99 -63
-181 -61 -184 10 -9 24 10 59 80 43 88 113 163 182 194 51 24 193 51 217 41
10 -3 13 -132 12 -633 0 -346 -4 -651 -8 -679 -23 -156 -128 -318 -240 -372
-48 -23 -47 -42 2 -36 149 18 271 101 341 232 60 112 59 109 60 776 1 336 3
619 5 630 15 76 61 120 136 130 27 4 50 11 50 16 0 5 -6 9 -12 10 -34 3 -627
4 -650 1z"/>
</g>
</svg>
